<?xml version="1.0" encoding="UTF-8"?>
<svg width="100px" height="100px" viewBox="0 0 100 100" version="1.1" xmlns="http://www.w3.org/2000/svg" xmlns:xlink="http://www.w3.org/1999/xlink">
    <title>EvoNet Logo</title>
    <g id="Page-1" stroke="none" stroke-width="1" fill="none" fill-rule="evenodd">
        <g id="evonet-logo">
            <circle id="background" fill="#1A365D" cx="50" cy="50" r="50"></circle>
            <g id="router" transform="translate(20.000000, 20.000000)" fill="#FFFFFF">
                <path d="M60,40 C60,44.418 56.418,48 52,48 L8,48 C3.582,48 0,44.418 0,40 L0,8 C0,3.582 3.582,0 8,0 L52,0 C56.418,0 60,3.582 60,8 L60,40 Z M56,8 C56,5.794 54.206,4 52,4 L8,4 C5.794,4 4,5.794 4,8 L4,40 C4,42.206 5.794,44 8,44 L52,44 C54.206,44 56,42.206 56,40 L56,8 Z" id="case" fill-rule="nonzero"></path>
                <circle id="light1" fill="#009CDE" cx="12" cy="12" r="4"></circle>
                <circle id="light2" fill="#009CDE" cx="24" cy="12" r="4"></circle>
                <circle id="light3" fill="#009CDE" cx="36" cy="12" r="4"></circle>
                <circle id="light4" fill="#009CDE" cx="48" cy="12" r="4"></circle>
                <rect id="connector1" fill="#009CDE" x="10" y="24" width="4" height="12" rx="2"></rect>
                <rect id="connector2" fill="#009CDE" x="22" y="24" width="4" height="12" rx="2"></rect>
                <rect id="connector3" fill="#009CDE" x="34" y="24" width="4" height="12" rx="2"></rect>
                <rect id="connector4" fill="#009CDE" x="46" y="24" width="4" height="12" rx="2"></rect>
            </g>
            <g id="signal" transform="translate(50.000000, 20.000000)" fill="#009CDE">
                <path d="M0,20 C0,20 2,16 6,16 C10,16 10,20 14,20 C18,20 18,16 22,16 C26,16 30,20 30,20" id="wave3" stroke="#009CDE" stroke-width="3" stroke-linecap="round"></path>
                <path d="M5,10 C5,10 7,6 11,6 C15,6 15,10 19,10 C23,10 23,6 25,6" id="wave2" stroke="#009CDE" stroke-width="3" stroke-linecap="round"></path>
                <path d="M10,0 C10,0 12,-2 14,0 C16,2 20,0 20,0" id="wave1" stroke="#009CDE" stroke-width="3" stroke-linecap="round"></path>
            </g>
        </g>
    </g>
</svg>